<svg width="174" height="174" viewBox="0 0 174 174" fill="none" xmlns="http://www.w3.org/2000/svg">
<path d="M130.5 32.625C134.85 32.6122 139.158 33.4693 143.172 35.1459C147.185 36.8225 150.823 39.2847 153.871 42.3878C156.919 45.4909 159.316 49.1722 160.92 53.2151C162.525 57.258 163.305 61.581 163.214 65.9297C163.123 70.2785 162.164 74.5652 160.392 78.5377C158.621 82.5103 156.073 86.0885 152.898 89.0619C149.723 92.0353 145.986 94.3438 141.906 95.8517C137.826 97.3596 133.486 98.0364 129.141 97.8424C126.732 107.188 121.285 115.467 113.656 121.379C106.028 127.291 96.6509 130.499 87 130.5H54.375C42.8381 130.5 31.7737 125.917 23.6159 117.759C15.458 109.601 10.875 98.5369 10.875 87V27.1875C10.875 25.7454 11.4479 24.3623 12.4676 23.3426C13.4873 22.3229 14.8704 21.75 16.3125 21.75H125.062C126.505 21.75 127.888 22.3229 128.907 23.3426C129.927 24.3623 130.5 25.7454 130.5 27.1875V32.625ZM130.5 43.5V87C136.268 87 141.801 84.7085 145.88 80.6296C149.958 76.5507 152.25 71.0185 152.25 65.25C152.25 59.4815 149.958 53.9493 145.88 49.8704C141.801 45.7915 136.268 43.5 130.5 43.5ZM16.3125 141.375H125.062C126.505 141.375 127.888 141.948 128.907 142.968C129.927 143.987 130.5 145.37 130.5 146.812C130.5 148.255 129.927 149.638 128.907 150.657C127.888 151.677 126.505 152.25 125.062 152.25H16.3125C14.8704 152.25 13.4873 151.677 12.4676 150.657C11.4479 149.638 10.875 148.255 10.875 146.812C10.875 145.37 11.4479 143.987 12.4676 142.968C13.4873 141.948 14.8704 141.375 16.3125 141.375ZM21.75 32.625V87C21.75 95.6527 25.1873 103.951 31.3056 110.069C37.424 116.188 45.7223 119.625 54.375 119.625H87C95.6527 119.625 103.951 116.188 110.069 110.069C116.188 103.951 119.625 95.6527 119.625 87V32.625H21.75Z" fill="black"/>
</svg>
