<svg width="82" height="82" viewBox="0 0 82 82" fill="none" xmlns="http://www.w3.org/2000/svg">
<path d="M28.1875 71.75C31.018 71.75 33.3125 69.4555 33.3125 66.625C33.3125 63.7945 31.018 61.5 28.1875 61.5C25.357 61.5 23.0625 63.7945 23.0625 66.625C23.0625 69.4555 25.357 71.75 28.1875 71.75Z" fill="#FBEC74"/>
<path d="M64.0625 71.75C66.893 71.75 69.1875 69.4555 69.1875 66.625C69.1875 63.7945 66.893 61.5 64.0625 61.5C61.232 61.5 58.9375 63.7945 58.9375 66.625C58.9375 69.4555 61.232 71.75 64.0625 71.75Z" fill="#FBEC74"/>
<path d="M73.1594 19.3437C72.7994 18.9033 72.3458 18.5487 71.8317 18.3054C71.3175 18.0622 70.7557 17.9365 70.1869 17.9375H21.4433L20.4616 12.3673C20.3569 11.7739 20.0465 11.2365 19.5849 10.8493C19.1233 10.462 18.54 10.2499 17.9375 10.25H7.6875C7.00788 10.25 6.3561 10.52 5.87554 11.0005C5.39498 11.4811 5.125 12.1329 5.125 12.8125C5.125 13.4921 5.39498 14.1439 5.87554 14.6245C6.3561 15.105 7.00788 15.375 7.6875 15.375H15.7882L23.1009 56.8202C23.2056 57.4136 23.516 57.951 23.9776 58.3382C24.4392 58.7255 25.0225 58.9376 25.625 58.9375H66.625C67.3046 58.9375 67.9564 58.6675 68.437 58.187C68.9175 57.7064 69.1875 57.0546 69.1875 56.375C69.1875 55.6954 68.9175 55.0436 68.437 54.563C67.9564 54.0825 67.3046 53.8125 66.625 53.8125H27.7743L26.871 48.6875H65.5744C66.4631 48.6864 67.324 48.3782 68.0116 47.8153C68.6992 47.2523 69.1712 46.4691 69.3477 45.5981L73.9602 22.5356C74.0713 21.9774 74.0571 21.4016 73.9186 20.8496C73.7802 20.2976 73.5208 19.7832 73.1594 19.3437Z" fill="#FBEC74"/>
</svg>
