<svg width="110" height="110" viewBox="0 0 110 110" fill="none" xmlns="http://www.w3.org/2000/svg">
<g clip-path="url(#clip0_133_1501)">
<path fill-rule="evenodd" clip-rule="evenodd" d="M20.0223 52.8408L33.4541 66.2727C33.9565 66.7408 34.3595 67.3054 34.639 67.9326C34.9185 68.5599 35.0687 69.237 35.0809 69.9236C35.093 70.6103 34.9667 71.2923 34.7095 71.929C34.4523 72.5657 34.0695 73.1442 33.5839 73.6297C33.0983 74.1153 32.5199 74.4981 31.8832 74.7553C31.2464 75.0125 30.5644 75.1388 29.8778 75.1267C29.1912 75.1146 28.5141 74.9643 27.8868 74.6848C27.2595 74.4053 26.695 74.0023 26.2268 73.4999L4.06774 51.3408L0.454102 47.7272L4.06774 44.1136L26.2268 21.9545C27.1962 21.0512 28.4783 20.5595 29.8031 20.5828C31.1279 20.6062 32.3919 21.1429 33.3288 22.0798C34.2657 23.0167 34.8024 24.2807 34.8257 25.6055C34.8491 26.9302 34.3574 28.2124 33.4541 29.1817L20.0223 42.6136H87.3859C93.2629 42.6136 98.8991 44.9482 103.055 49.1038C107.21 53.2594 109.545 58.8957 109.545 64.7727C109.545 70.6496 107.21 76.2859 103.055 80.4415C98.8991 84.5971 93.2629 86.9317 87.3859 86.9317H73.7496C72.3933 86.9317 71.0927 86.393 70.1337 85.434C69.1747 84.475 68.6359 83.1743 68.6359 81.8181C68.6359 80.4619 69.1747 79.1612 70.1337 78.2022C71.0927 77.2432 72.3933 76.7045 73.7496 76.7045H87.3859C90.5504 76.7045 93.5853 75.4474 95.823 73.2097C98.0606 70.9721 99.3177 67.9372 99.3177 64.7727C99.3177 61.6081 98.0606 58.5732 95.823 56.3356C93.5853 54.0979 90.5504 52.8408 87.3859 52.8408H20.0223Z" fill="white"/>
</g>
<defs>
<clipPath id="clip0_133_1501">
<rect width="109.091" height="109.091" fill="white" transform="translate(0.454102)"/>
</clipPath>
</defs>
</svg>
