<svg width="150" height="150" viewBox="0 0 150  150" fill="none" xmlns="http://www.w3.org/2000/svg">
<path d="M112.5 28.125C116.25 28.114 119.964 28.8528 123.424 30.2982C126.884 31.7435 130.02 33.8662 132.647 36.5412C135.275 39.2163 137.341 42.3898 138.724 45.8751C140.108 49.3604 140.78 53.0871 140.702 56.836C140.624 60.5849 139.797 64.2803 138.269 67.705C136.742 71.1296 134.546 74.2142 131.809 76.7775C129.072 79.3407 125.85 81.3309 122.333 82.6308C118.816 83.9307 115.074 84.5142 111.328 84.3469C109.251 92.4032 104.556 99.5408 97.9795 104.637C91.4033 109.733 83.3197 112.499 75 112.5H46.875C36.9294 112.5 27.3911 108.549 20.3585 101.517C13.3259 94.4839 9.375 84.9456 9.375 75V23.4375C9.375 22.1943 9.86886 21.002 10.7479 20.1229C11.627 19.2439 12.8193 18.75 14.0625 18.75H107.813C109.056 18.75 110.248 19.2439 111.127 20.1229C112.006 21.002 112.5 22.1943 112.5 23.4375V28.125ZM112.5 37.5V75C117.473 75 122.242 73.0246 125.758 69.5083C129.275 65.9919 131.25 61.2228 131.25 56.25C131.25 51.2772 129.275 46.5081 125.758 42.9917C122.242 39.4754 117.473 37.5 112.5 37.5ZM14.0625 121.875H107.813C109.056 121.875 110.248 122.369 111.127 123.248C112.006 124.127 112.5 125.319 112.5 126.562C112.5 127.806 112.006 128.998 111.127 129.877C110.248 130.756 109.056 131.25 107.813 131.25H14.0625C12.8193 131.25 11.627 130.756 10.7479 129.877C9.86886 128.998 9.375 127.806 9.375 126.562C9.375 125.319 9.86886 124.127 10.7479 123.248C11.627 122.369 12.8193 121.875 14.0625 121.875ZM18.75 28.125V75C18.75 82.4592 21.7132 89.6129 26.9876 94.8874C32.2621 100.162 39.4158 103.125 46.875 103.125H75C82.4592 103.125 89.6129 100.162 94.8874 94.8874C100.162 89.6129 103.125 82.4592 103.125 75V28.125H18.75Z" fill="black"/>
</svg>
