<svg width="120" height="120" viewBox="0 0 120 120" fill="none" xmlns="http://www.w3.org/2000/svg">
<path d="M90 22.5C92.9998 22.4912 95.971 23.0823 98.739 24.2385C101.507 25.3948 104.016 27.0929 106.118 29.233C108.22 31.373 109.873 33.9118 110.98 36.7001C112.086 39.4883 112.624 42.4697 112.561 45.4688C112.499 48.4679 111.837 51.4243 110.616 54.164C109.394 56.9037 107.636 59.3714 105.447 61.422C103.258 63.4726 100.68 65.0647 97.8664 66.1046C95.0526 67.1446 92.0593 67.6113 89.0625 67.4775C87.401 73.9226 83.6445 79.6326 78.3836 83.7097C73.1226 87.7867 66.6558 89.9995 60 90H37.5C29.5435 90 21.9129 86.8393 16.2868 81.2132C10.6607 75.5871 7.5 67.9565 7.5 60V18.75C7.5 17.7554 7.89509 16.8016 8.59835 16.0984C9.30161 15.3951 10.2554 15 11.25 15H86.25C87.2446 15 88.1984 15.3951 88.9017 16.0984C89.6049 16.8016 90 17.7554 90 18.75V22.5ZM90 30V60C93.9782 60 97.7936 58.4196 100.607 55.6066C103.42 52.7936 105 48.9782 105 45C105 41.0218 103.42 37.2064 100.607 34.3934C97.7936 31.5804 93.9782 30 90 30ZM11.25 97.5H86.25C87.2446 97.5 88.1984 97.8951 88.9017 98.5983C89.6049 99.3016 90 100.255 90 101.25C90 102.245 89.6049 103.198 88.9017 103.902C88.1984 104.605 87.2446 105 86.25 105H11.25C10.2554 105 9.30161 104.605 8.59835 103.902C7.89509 103.198 7.5 102.245 7.5 101.25C7.5 100.255 7.89509 99.3016 8.59835 98.5983C9.30161 97.8951 10.2554 97.5 11.25 97.5ZM15 22.5V60C15 65.9674 17.3705 71.6903 21.5901 75.9099C25.8097 80.1295 31.5326 82.5 37.5 82.5H60C65.9674 82.5 71.6903 80.1295 75.9099 75.9099C80.1295 71.6903 82.5 65.9674 82.5 60V22.5H15Z" fill="black"/>
</svg>
