<svg width="132" height="114" viewBox="0 0 132 114" fill="none" xmlns="http://www.w3.org/2000/svg">
<path d="M103.5 10.125C107.25 10.114 110.964 10.8528 114.424 12.2982C117.884 13.7435 121.02 15.8662 123.647 18.5412C126.275 21.2163 128.341 24.3898 129.724 27.8751C131.108 31.3604 131.78 35.0871 131.702 38.836C131.624 42.5849 130.797 46.2803 129.269 49.705C127.742 53.1296 125.546 56.2142 122.809 58.7775C120.072 61.3407 116.85 63.3309 113.333 64.6308C109.816 65.9307 106.074 66.5142 102.328 66.3469C100.251 74.4032 95.5556 81.5408 88.9795 86.6371C82.4033 91.7334 74.3197 94.4994 66 94.5H37.875C27.9294 94.5 18.3911 90.5491 11.3585 83.5165C4.32588 76.4839 0.375 66.9456 0.375 57V5.4375C0.375 4.1943 0.86886 3.00201 1.74794 2.12294C2.62701 1.24386 3.8193 0.75 5.0625 0.75H98.8125C100.056 0.75 101.248 1.24386 102.127 2.12294C103.006 3.00201 103.5 4.1943 103.5 5.4375V10.125ZM103.5 19.5V57C108.473 57 113.242 55.0246 116.758 51.5083C120.275 47.9919 122.25 43.2228 122.25 38.25C122.25 33.2772 120.275 28.5081 116.758 24.9917C113.242 21.4754 108.473 19.5 103.5 19.5ZM5.0625 103.875H98.8125C100.056 103.875 101.248 104.369 102.127 105.248C103.006 106.127 103.5 107.319 103.5 108.562C103.5 109.806 103.006 110.998 102.127 111.877C101.248 112.756 100.056 113.25 98.8125 113.25H5.0625C3.8193 113.25 2.62701 112.756 1.74794 111.877C0.86886 110.998 0.375 109.806 0.375 108.562C0.375 107.319 0.86886 106.127 1.74794 105.248C2.62701 104.369 3.8193 103.875 5.0625 103.875ZM9.75 10.125V57C9.75 64.4592 12.7132 71.6129 17.9876 76.8874C23.2621 82.1618 30.4158 85.125 37.875 85.125H66C73.4592 85.125 80.6129 82.1618 85.8874 76.8874C91.1618 71.6129 94.125 64.4592 94.125 57V10.125H9.75Z" fill="black"/>
</svg>
